<?xml version="1.0" encoding="utf-8"?><svg viewBox="0 0 512 512" xmlns="http://www.w3.org/2000/svg" xmlns:xlink="http://www.w3.org/1999/xlink"><style>:root>svg{display:none}:root>svg:target{display:block}</style><svg viewBox="0 0 6 11" id="angle" xmlns="http://www.w3.org/2000/svg"><g clip-path="url(#aa)"><path d="M.175 9.955a.617.617 0 0 0 .885.858l4.763-4.905-.442-.428.444.43a.617.617 0 0 0-.013-.874c-.007-.008-.015-.014-.022-.02L1.06.187a.617.617 0 0 0-.885.859L4.52 5.48.175 9.955Z"/></g><defs><clipPath id="aa"><path d="M0 0h6v11H0z"/></clipPath></defs></svg><svg viewBox="0 0 502.664 502.664" xml:space="preserve" id="icon" xmlns="http://www.w3.org/2000/svg"><path d="M153.821 358.226 0 274.337v-46.463l153.821-83.414v54.574L46.636 250.523l107.185 53.431v54.272zm26.273 29.358L282.103 115.08h32.227L212.084 387.584h-31.99zm168.749-29.358v-54.272l107.164-52.999-107.164-52.59v-53.927l153.821 83.522v46.183l-153.821 84.083z"/></svg><svg viewBox="0 0 24 24" id="left" xmlns="http://www.w3.org/2000/svg"><path d="m16.752 23.994-9.873-9.873a3 3 0 0 1 0-4.242L16.746.012l1.414 1.414-9.867 9.867a1 1 0 0 0 0 1.414l9.873 9.873Z" data-name="01 align center"/></svg><svg viewBox="0 0 16 16" id="phone" xmlns="http://www.w3.org/2000/svg"><g clip-path="url(#da)"><path d="M12.2 10c-1.1-.1-1.7 1.4-2.5 1.8C8.4 12.5 6 10 6 10S3.5 7.6 4.1 6.3c.5-.8 2-1.4 1.9-2.5-.1-1-2.3-4.6-3.4-3.6C.2 2.4 0 3.3 0 5.1c-.1 3.1 3.9 7 3.9 7 .4.4 3.9 4 7 3.9 1.8 0 2.7-.2 4.9-2.6 1-1.1-2.5-3.3-3.6-3.4Z"/></g><defs><clipPath id="da"><path d="M0 0h16v16H0z"/></clipPath></defs></svg><svg viewBox="0 0 24 24" id="right" xmlns="http://www.w3.org/2000/svg"><path d="M7.412 24 6 22.588l9.881-9.881a1 1 0 0 0 0-1.414L6.017 1.431 7.431.017l9.862 9.862a3 3 0 0 1 0 4.242Z" data-name="01 align center"/></svg></svg>